<svg width="21" height="21" viewBox="0 0 21 21" fill="none" xmlns="http://www.w3.org/2000/svg">
<path d="M10.5 21C4.70101 21 0 16.2989 0 10.5C0 4.70101 4.70101 0 10.5 0C16.2989 0 21 4.70101 21 10.5C20.9936 16.2963 16.2963 20.9936 10.5 21ZM2.1 10.6806C2.14969 15.3019 5.92316 19.015 10.5446 18.9903C15.1662 18.9653 18.8995 15.2119 18.8995 10.5903C18.8995 5.96874 15.1662 2.21526 10.5446 2.1903C5.92316 2.16558 2.14969 5.8787 2.1 10.5V10.6806ZM8.4 15.225V5.775L14.7 10.5L8.4 15.225Z" fill="white"/>
</svg>
