<svg width="21" height="17" viewBox="0 0 21 17" fill="none" xmlns="http://www.w3.org/2000/svg">
<path d="M10.4995 2.28986e-07C5.35026 -0.000543781 0.960793 3.06372 0.136372 7.23438C-0.688059 11.4051 2.29599 15.4507 7.18143 16.7857C7.7076 16.8634 7.89597 16.5983 7.89597 16.3704C7.89597 16.1657 7.88755 15.6234 7.88439 14.9024C4.96413 15.4205 4.34745 13.747 4.34745 13.747C4.1552 13.2263 3.7419 12.7793 3.1825 12.4872C2.23539 11.9527 3.25511 11.9648 3.25511 11.9648C3.92932 12.0406 4.52272 12.3685 4.86205 12.8525C5.14927 13.281 5.63316 13.5977 6.20621 13.732C6.77927 13.8665 7.39401 13.8075 7.91386 13.5683C7.96271 13.1314 8.1996 12.723 8.58208 12.4164C6.2522 12.1996 3.80233 11.4605 3.80233 8.15929C3.7894 7.30545 4.1758 6.48002 4.88204 5.85286C4.5625 5.10964 4.60013 4.29444 4.98728 3.5732C4.98728 3.5732 5.86809 3.34091 7.87282 4.45484C9.59223 4.06799 11.4068 4.06799 13.1261 4.45484C15.1319 3.34005 16.0117 3.5732 16.0117 3.5732C16.4006 4.2941 16.4383 5.10987 16.1169 5.85286C16.8258 6.47996 17.2119 7.30752 17.1945 8.16274C17.1945 11.4726 14.7425 12.1996 12.4042 12.4129C12.9086 12.8361 13.1674 13.4166 13.1145 14.007C13.1145 15.1589 13.1019 16.088 13.1019 16.3704C13.1019 16.6009 13.2892 16.8686 13.8249 16.784C18.7083 15.4468 21.6892 11.4009 20.863 7.23127C20.0369 3.0617 15.6477 -0.0009669 10.4995 2.28986e-07Z" fill="white"/>
</svg>
